<?xml version="1.0" encoding="UTF-8" standalone="no"?>
<!-- Created with Inkscape (http://www.inkscape.org/) -->

<svg
   width="30mm"
   height="30mm"
   viewBox="0 0 30 30"
   version="1.1"
   id="svg1"
   xml:space="preserve"
   xmlns="http://www.w3.org/2000/svg"
   xmlns:svg="http://www.w3.org/2000/svg"><defs
     id="defs1" /><g
     id="layer1"
     transform="translate(-250.42734,-135.12423)"><ellipse
       style="fill:#1b418e;fill-opacity:1;stroke:none;stroke-width:0.306173;stroke-dasharray:none;stroke-opacity:1;paint-order:stroke fill markers"
       id="path8-6-53"
       cx="265.39206"
       cy="150.11755"
       rx="14.745725"
       ry="14.938534" /><path
       style="fill:none;fill-opacity:1;stroke:#f8cd05;stroke-width:0.488235;stroke-linecap:butt;stroke-linejoin:miter;stroke-dasharray:none;stroke-opacity:1"
       d="m 265.36328,161.01237 c 5.94041,-0.33306 8.92545,-4.61486 12.32641,-8.34094 v -5.10491 c -3.40096,-3.72608 -6.40592,-8.14659 -12.29762,-8.34094 -5.04453,-0.125 -8.89666,4.61486 -12.29761,8.34094 v 5.10491 c 3.40095,3.72608 6.38599,8.00788 12.32641,8.34094"
       id="path5-1-9-0-5" /><path
       style="fill:none;fill-opacity:1;stroke:#f8cd05;stroke-width:0.488235;stroke-linecap:butt;stroke-linejoin:miter;stroke-dasharray:none;stroke-opacity:1"
       d="m 258.53122,150.04236 c 0.96253,-0.83538 3.61874,-5.04068 6.9454,-4.92508 3.10471,-0.0668 7.15501,5.10375 8.28893,7.55415 -1.93983,2.27275 -5.04123,5.79049 -8.47923,5.73562 -3.81406,0.008 -9.07506,-6.8011 -12.19186,-10.84053"
       id="path6-3-4-6" /><path
       style="fill:none;fill-opacity:1;stroke:#f8cd05;stroke-width:0.488235;stroke-linecap:butt;stroke-linejoin:miter;stroke-dasharray:none;stroke-opacity:1"
       d="m 272.2236,150.19209 c -0.96253,0.83538 -3.54285,4.78116 -6.93073,4.92682 -3.51543,-0.23889 -7.14035,-5.10199 -8.27428,-7.55239 1.93983,-2.27275 4.02007,-5.42677 8.40997,-5.4237 5.33445,0.0278 9.14432,6.48918 12.26113,10.52861"
       id="path6-1-7-8-2" /><path
       style="fill:none;fill-opacity:1;stroke:none;stroke-width:0.0698885;stroke-dasharray:none;stroke-opacity:1;paint-order:stroke fill markers"
       d="m 264.60227,154.82202 c -1.27447,-0.34553 -2.46997,-1.10357 -3.81927,-2.42168 -0.60584,-0.59186 -1.59152,-1.71242 -1.91793,-2.18039 -0.0831,-0.11916 -0.0158,-0.21867 0.71483,-1.05703 1.64554,-1.88813 2.68234,-2.79355 3.84921,-3.36144 2.16165,-1.05204 3.98148,-0.47249 6.56103,2.08946 0.83209,0.82639 1.96163,2.12515 1.96163,2.25547 0,0.0946 -2.0585,2.29913 -2.60576,2.79065 -1.7158,1.54107 -3.45832,2.23347 -4.74374,1.88496 z"
       id="path10-8-91" /><path
       style="fill:none;fill-opacity:1;stroke:none;stroke-width:0.0123547;stroke-dasharray:none;stroke-opacity:1;paint-order:stroke fill markers"
       d="m 265.23697,154.96977 c -0.0201,-0.002 -0.0888,-0.0105 -0.15249,-0.0177 -0.48498,-0.0552 -1.06376,-0.23457 -1.61753,-0.50115 -1.50062,-0.72239 -3.13,-2.19612 -4.60376,-4.16402 -0.10391,-0.13879 -0.14701,-0.2056 -0.13943,-0.21616 0.006,-0.008 0.0845,-0.0944 0.17438,-0.19114 0.0898,-0.0967 0.31197,-0.34949 0.49361,-0.56172 0.7541,-0.8812 1.00279,-1.15785 1.44089,-1.60298 0.43782,-0.44484 0.75673,-0.73894 1.11053,-1.02413 1.06275,-0.85666 2.07393,-1.32404 3.06201,-1.41532 0.20064,-0.0186 0.67002,-0.0154 0.84933,0.005 1.51923,0.17845 3.42072,1.53814 5.35652,3.83024 0.17233,0.20402 0.57645,0.71172 0.72286,0.90808 l 0.10748,0.14416 -0.1694,0.17434 c -0.0932,0.0959 -0.31203,0.33698 -0.48635,0.53574 -0.6637,0.75672 -0.9171,1.03508 -1.28675,1.41336 -1.67527,1.71441 -3.21813,2.58739 -4.7399,2.68193 -0.0469,0.003 -0.10183,0.003 -0.122,8.1e-4 z"
       id="path11-8-2" /><path
       style="fill:#f8cd05;fill-opacity:1;stroke:#f8cd05;stroke-width:0.226867;stroke-dasharray:none;stroke-opacity:1;paint-order:stroke fill markers"
       d="m 264.73405,154.75585 c -1.27251,-0.28803 -2.53099,-1.09013 -3.96898,-2.5297 -0.84744,-0.84838 -1.59603,-1.70124 -1.8118,-2.06422 -0.063,-0.10603 1.68598,-2.11218 2.44194,-2.80097 1.07022,-0.97512 2.06954,-1.59146 2.96553,-1.829 0.5818,-0.15425 1.50829,-0.15413 2.03718,2.8e-4 1.11723,0.32614 2.39833,1.23052 3.79657,2.68016 0.65534,0.67944 1.61927,1.82258 1.61927,1.92034 0,0.0819 -1.32192,1.55805 -1.99521,2.22792 -1.82522,1.81601 -3.71348,2.70552 -5.0845,2.39519 z"
       id="path16-9-7" /></g></svg>
